# Blender v2.78 (sub 0) OBJ File: '13.blend'
# www.blender.org
mtllib Nintendo_DS_01.mtl
g DS_Cube.033
v -5.000000 0.398998 -4.875717
v -5.000000 0.499868 -4.394207
v -3.235688 6.810468 -5.716196
v -4.267550 6.290586 -5.607288
v 5.000000 0.398998 -4.875717
v 5.000000 0.499868 -4.394207
v -4.267550 1.106846 -4.521360
v 4.267550 1.106846 -4.521360
v -5.000000 5.902663 -6.028664
v -3.719972 7.155495 -6.291117
v -4.625089 6.788549 -6.214246
v -3.719972 7.256365 -5.809606
v -5.000000 6.003533 -5.547154
v -4.625089 6.889420 -5.732736
v 3.719973 7.155495 -6.291117
v 5.000000 5.902663 -6.028664
v 4.625088 6.788549 -6.214246
v 5.000000 6.003533 -5.547154
v 3.719973 7.256365 -5.809606
v 4.625088 6.889420 -5.732736
v -4.267550 5.894017 -5.524211
v 4.267550 6.290586 -5.607288
v 4.267550 5.894017 -5.524211
v 3.235688 6.810468 -5.716196
v 4.267550 1.094571 -4.579957
v 4.267550 5.881742 -5.582808
v -4.267550 1.094571 -4.579957
v -4.267550 5.881742 -5.582808
v 4.267550 6.278312 -5.665884
v -4.267550 6.278312 -5.665884
v -2.470348 6.810468 -5.716196
v 2.470348 6.810468 -5.716196
v 3.258142 1.106846 -4.521360
v -3.258142 1.106846 -4.521360
v -3.817345 0.398998 -4.875717
v 3.817345 0.398998 -4.875717
v 3.817345 0.499868 -4.394207
v -3.817345 0.499868 -4.394207
v 2.840084 7.155495 -6.291117
v -2.840084 7.155495 -6.291117
v -2.840084 7.256365 -5.809606
v 2.840084 7.256365 -5.809606
v -3.258142 6.290586 -5.607288
v 3.258142 6.290586 -5.607288
v 3.258142 1.094571 -4.579957
v -3.258142 1.094571 -4.579957
v -3.258142 6.278312 -5.665884
v 3.258142 6.278312 -5.665884
v 3.258142 5.881742 -5.582808
v -3.258142 5.881742 -5.582808
v -3.817345 -0.174285 -4.755621
v 3.817345 -0.174285 -4.755621
v 3.817345 -0.073415 -4.274111
v -3.817345 -0.073415 -4.274111
v -5.000000 0.449433 -4.634962
v 5.000000 0.449433 -4.634962
v -3.719972 7.205930 -6.050362
v -4.625089 6.838984 -5.973491
v -5.000000 5.953098 -5.787909
v 5.000000 5.953098 -5.787909
v 4.625088 6.838984 -5.973491
v 3.719973 7.205930 -6.050362
v 3.817345 0.449433 -4.634962
v -3.817345 0.449433 -4.634962
v -2.840084 7.205930 -6.050362
v 2.840084 7.205930 -6.050362
v 3.817345 -0.281154 -4.481913
v -3.817345 -0.281154 -4.481913
v -3.817345 0.086139 -4.810177
v -3.817345 0.187009 -4.328667
v 3.817345 0.187009 -4.328667
v 3.817345 0.086139 -4.810177
v 3.817345 0.276777 -4.598793
v -3.817345 0.276777 -4.598793
v 3.817345 -0.136165 -4.512287
v 3.817345 -0.084001 -4.645885
v -3.817345 -0.136165 -4.512287
v -3.817345 -0.084001 -4.645885
v -3.817345 0.043113 -4.672514
v 3.817345 0.043113 -4.672514
v 3.817345 -0.034766 -4.410857
v -3.817345 -0.034766 -4.410857
v 3.817345 0.136165 -4.569336
v -3.817345 0.136165 -4.569336
v -3.817345 0.092349 -4.437486
v 3.817345 0.092349 -4.437486
v 4.993999 -0.136165 -4.512287
v 4.993999 -0.084001 -4.645885
v -4.993999 -0.136165 -4.512287
v -4.993999 -0.084001 -4.645885
v -4.993999 0.043113 -4.672514
v 4.993999 0.043113 -4.672514
v 4.993999 -0.034766 -4.410857
v -4.993999 -0.034766 -4.410857
v 4.993999 0.136165 -4.569336
v -4.993999 0.136165 -4.569336
v -4.993999 0.092349 -4.437486
v 4.993999 0.092349 -4.437486
v -4.999394 0.245981 -4.060436
v -3.916573 0.245981 -4.060436
v -3.916573 -0.245981 -4.060436
v -4.999394 -0.245981 -4.060436
v -4.999394 0.245981 -4.646163
v -3.916573 0.245981 -4.646163
v -3.916573 -0.245981 -4.646163
v -4.999394 -0.245981 -4.646163
v -3.916573 0.000000 -4.806882
v -4.999394 0.000000 -4.806882
v -4.999394 0.245981 -4.380086
v -4.999394 -0.245981 -4.380086
v -3.916573 -0.245981 -4.380086
v -3.916573 0.245981 -4.380086
v 3.916587 0.245981 -4.060436
v 4.999408 0.245981 -4.060436
v 4.999408 -0.245981 -4.060436
v 3.916587 -0.245981 -4.060436
v 3.916587 0.245981 -4.646163
v 4.999408 0.245981 -4.646163
v 4.999408 -0.245981 -4.646163
v 3.916587 -0.245981 -4.646163
v 4.999408 0.000000 -4.806882
v 3.916587 0.000000 -4.806882
v 3.916587 0.245981 -4.380086
v 3.916587 -0.245981 -4.380086
v 4.999408 -0.245981 -4.380086
v 4.999408 0.245981 -4.380086
v -3.090292 0.234627 -2.819614
v 3.090292 0.234627 -2.819614
v -5.000000 0.245981 -4.004984
v -5.000000 -0.245981 -4.004984
v 3.090292 0.234627 1.015608
v 3.235688 0.245981 2.442598
v 5.000000 0.245981 -4.004985
v 5.000000 -0.245981 -4.004985
v 5.000000 -0.245981 1.618147
v 3.719972 -0.245981 2.898175
v 4.625089 -0.245981 2.523263
v 3.719972 0.245981 2.898175
v 5.000000 0.245981 1.618147
v 4.625089 0.245981 2.523263
v -3.719972 -0.245981 2.898175
v -5.000000 -0.245981 1.618148
v -4.625089 -0.245981 2.523264
v -5.000000 0.245981 1.618148
v -3.719972 0.245981 2.898175
v -4.625089 0.245981 2.523264
v 3.090292 0.234627 0.722204
v -3.090292 0.234627 1.015610
v -3.090292 0.234627 0.722204
v -3.235688 0.245981 2.442599
v -3.090292 0.191274 -2.819614
v -3.090292 0.191274 0.722204
v 3.090292 0.191274 -2.819614
v 3.090292 0.191274 0.722204
v -3.090292 0.191274 1.015610
v 3.090292 0.191274 1.015608
v 2.470348 0.245981 2.442598
v -2.470348 0.245981 2.442598
v -2.359342 0.234627 -2.819614
v 2.359342 0.234627 -2.819614
v 3.817345 -0.245981 -4.004985
v -3.817346 -0.245981 -4.004984
v -3.817346 0.245981 -4.004984
v 3.817345 0.245981 -4.004985
v -2.840084 -0.245981 2.898175
v 2.840084 -0.245981 2.898175
v 2.840084 0.245981 2.898175
v -2.840084 0.245981 2.898175
v 2.359342 0.234627 1.015608
v -2.359342 0.234627 1.015608
v -2.359342 0.191274 -2.819614
v 2.359342 0.191274 -2.819614
v 2.359342 0.191274 1.015608
v -2.359342 0.191274 1.015608
v -2.359342 0.191274 0.722204
v 2.359342 0.191274 0.722204
v 5.000000 0.000000 -4.004985
v -5.000000 0.000000 -4.004984
v 3.719972 0.000000 2.898175
v 4.625089 0.000000 2.523263
v 5.000000 0.000000 1.618147
v -5.000000 0.000000 1.618148
v -4.625089 0.000000 2.523264
v -3.719972 0.000000 2.898175
v 2.840084 0.000000 2.898175
v -2.840084 0.000000 2.898175
v -4.999394 0.000000 -4.380086
v -4.999394 -0.000000 -4.060436
v -4.999394 0.000000 -4.646163
v 4.999408 -0.000000 -4.060436
v 4.999408 0.000000 -4.380086
v 4.999408 0.000000 -4.646163
v -4.110533 0.193943 -2.962729
v -4.483415 0.193943 -2.808275
v -4.637868 0.193943 -2.435393
v -4.483415 0.193943 -2.062511
v -4.110533 0.193943 -1.908058
v -3.737650 0.193943 -2.062511
v -3.583198 0.193943 -2.435393
v -3.737650 0.193943 -2.808275
v -4.110533 0.337286 -2.962729
v -4.483415 0.337286 -2.808275
v -4.637868 0.337286 -2.435393
v -4.483415 0.337286 -2.062511
v -4.110533 0.337286 -1.908058
v -3.737650 0.337286 -2.062511
v -3.583198 0.337286 -2.435393
v -3.737650 0.337286 -2.808275
v -4.110533 0.337286 -2.435393
v 3.931420 0.251279 -3.241004
v 3.893663 0.251279 -3.149851
v 3.802509 0.251279 -3.112093
v 3.711356 0.251279 -3.149851
v 3.673599 0.251279 -3.241004
v 3.711356 0.251279 -3.332158
v 3.802509 0.251279 -3.369915
v 3.893663 0.251279 -3.332158
v 3.802509 0.286321 -3.369915
v 3.711356 0.286321 -3.332158
v 3.673599 0.286321 -3.241004
v 3.711356 0.286321 -3.149851
v 3.802509 0.286321 -3.112093
v 3.893663 0.286321 -3.149851
v 3.931420 0.286321 -3.241004
v 3.893663 0.286321 -3.332158
v 3.802509 0.286321 -3.241004
v 4.278729 0.236060 -2.330422
v 4.209998 0.236060 -2.164489
v 4.044065 0.236060 -2.095758
v 3.878132 0.236060 -2.164489
v 3.809401 0.236060 -2.330422
v 3.878132 0.236060 -2.496355
v 4.044065 0.236060 -2.565086
v 4.209998 0.236060 -2.496355
v 4.044065 0.299848 -2.565086
v 3.878132 0.299848 -2.496355
v 3.809401 0.299848 -2.330422
v 3.878132 0.299848 -2.164489
v 4.044065 0.299848 -2.095758
v 4.209998 0.299848 -2.164489
v 4.278729 0.299848 -2.330422
v 4.209998 0.299848 -2.496355
v 4.044065 0.299848 -2.330422
v 4.278729 0.236060 -1.400001
v 4.209998 0.236060 -1.234068
v 4.044065 0.236060 -1.165337
v 3.878132 0.236060 -1.234068
v 3.809401 0.236060 -1.400001
v 3.878132 0.236060 -1.565934
v 4.044065 0.236060 -1.634666
v 4.209998 0.236060 -1.565934
v 4.044065 0.299848 -1.634666
v 3.878132 0.299848 -1.565934
v 3.809401 0.299848 -1.400001
v 3.878132 0.299848 -1.234068
v 4.044065 0.299848 -1.165337
v 4.209998 0.299848 -1.234068
v 4.278729 0.299848 -1.400001
v 4.209998 0.299848 -1.565934
v 4.044065 0.299848 -1.400001
v 3.578855 0.236060 -2.099874
v 3.744788 0.236060 -2.031143
v 3.813519 0.236060 -1.865210
v 3.744788 0.236060 -1.699277
v 3.578855 0.236060 -1.630546
v 3.412922 0.236060 -1.699277
v 3.344191 0.236060 -1.865210
v 3.412922 0.236060 -2.031143
v 3.344191 0.299848 -1.865210
v 3.412922 0.299848 -1.699277
v 3.578855 0.299848 -1.630546
v 3.744788 0.299848 -1.699277
v 3.813519 0.299848 -1.865210
v 3.744788 0.299848 -2.031143
v 3.578855 0.299848 -2.099874
v 3.412922 0.299848 -2.031143
v 3.578855 0.299848 -1.865210
v 4.509276 0.236060 -2.099874
v 4.675209 0.236060 -2.031143
v 4.743940 0.236060 -1.865210
v 4.675209 0.236060 -1.699277
v 4.509276 0.236060 -1.630546
v 4.343343 0.236060 -1.699277
v 4.274611 0.236060 -1.865210
v 4.343343 0.236060 -2.031143
v 4.274611 0.299848 -1.865210
v 4.343343 0.299848 -1.699277
v 4.509276 0.299848 -1.630546
v 4.675209 0.299848 -1.699277
v 4.743940 0.299848 -1.865210
v 4.675209 0.299848 -2.031143
v 4.509276 0.299848 -2.099874
v 4.343343 0.299848 -2.031143
v 4.509276 0.299848 -1.865210
v 3.931420 0.251279 -0.158474
v 3.893663 0.251279 -0.067320
v 3.802509 0.251279 -0.029563
v 3.711356 0.251279 -0.067320
v 3.673599 0.251279 -0.158474
v 3.711356 0.251279 -0.249628
v 3.802509 0.251279 -0.287385
v 3.893663 0.251279 -0.249628
v 3.802509 0.286321 -0.287385
v 3.711356 0.286321 -0.249628
v 3.673599 0.286321 -0.158474
v 3.711356 0.286321 -0.067320
v 3.802509 0.286321 -0.029563
v 3.893663 0.286321 -0.067320
v 3.931420 0.286321 -0.158474
v 3.893663 0.286321 -0.249628
v 3.802509 0.286321 -0.158474
v 3.931420 0.251279 0.369158
v 3.893663 0.251279 0.460312
v 3.802509 0.251279 0.498070
v 3.711356 0.251279 0.460312
v 3.673599 0.251279 0.369158
v 3.711356 0.251279 0.278004
v 3.802509 0.251279 0.240247
v 3.893663 0.251279 0.278004
v 3.802509 0.286321 0.240247
v 3.711356 0.286321 0.278004
v 3.673599 0.286321 0.369158
v 3.711356 0.286321 0.460312
v 3.802509 0.286321 0.498070
v 3.893663 0.286321 0.460312
v 3.931420 0.286321 0.369158
v 3.893663 0.286321 0.278004
v 3.802509 0.286321 0.369158
v -4.290061 0.021321 -0.836905
v -4.290061 0.338043 -0.836905
v -4.290061 0.021321 -1.153627
v -4.290061 0.338043 -1.153627
v -3.973340 0.021321 -0.836905
v -3.973340 0.338043 -0.836905
v -3.973340 0.021321 -1.153627
v -3.973340 0.338043 -1.153627
v -4.290061 0.021321 -0.495853
v -4.290061 0.338043 -0.495853
v -4.290061 0.338043 -1.494679
v -4.290061 0.021321 -1.494679
v -3.973340 0.021321 -1.494679
v -3.973340 0.338043 -1.494679
v -3.973340 0.338043 -0.495853
v -3.973340 0.021321 -0.495853
v -4.587204 0.021321 -1.153627
v -4.587204 0.021321 -0.836905
v -4.587204 0.338043 -0.836905
v -4.587204 0.338043 -1.153627
v -3.676197 0.338043 -1.153627
v -3.676197 0.021321 -1.153627
v -3.676197 0.021321 -0.836905
v -3.676197 0.338043 -0.836905
vn 0.0000 0.9788 -0.2050
vn 0.0000 -0.2050 -0.9788
vn 1.0000 0.0000 0.0000
vn 0.0000 -0.9788 0.2050
vn -0.0000 0.2050 0.9788
vn -0.3827 0.9043 -0.1894
vn -0.9239 0.3746 -0.0785
vn 0.9239 0.3746 -0.0785
vn 0.3827 0.9043 -0.1894
vn -1.0000 0.0000 0.0000
vn 0.0000 -0.7072 0.7070
vn 0.0000 -0.9315 -0.3637
vn 0.0000 0.9490 0.3154
vn 0.0000 0.7426 -0.6697
vn 0.0000 -0.5470 -0.8371
vn 0.0000 -1.0000 0.0000
vn 0.0000 1.0000 0.0000
vn 0.0000 0.5470 -0.8371
vn 0.0000 0.0000 1.0000
vn -0.3827 0.0000 0.9239
vn -0.9239 0.0000 0.3827
vn 0.9239 0.0000 0.3827
vn 0.3827 0.0000 0.9239
vn -0.0004 1.0000 -0.0062
vn 0.0004 1.0000 -0.0062
vn 0.0054 1.0000 -0.0017
vn 0.0000 1.0000 0.0096
vn 0.0059 1.0000 0.0000
vn -0.0059 1.0000 0.0000
vn -0.0054 1.0000 -0.0017
vn -0.0000 1.0000 -0.0080
vn 0.0000 0.0000 -1.0000
vn -0.9999 0.0000 -0.0109
vn 0.4878 0.0000 -0.8729
vn -0.4878 0.0000 -0.8730
vn 0.9999 0.0000 -0.0107
vn -0.3827 0.0000 -0.9239
vn 0.3827 0.0000 -0.9239
vn -0.9239 0.0000 -0.3827
vn 0.9239 0.0000 -0.3827
usemtl 1A1A1A
s off
f 66//1 42//1 19//1 62//1
f 36//2 39//2 15//2 17//2 16//2 5//2
f 4//3 21//3 28//3 30//3
f 64//4 38//4 2//4 55//4
f 20//5 19//5 24//5 22//5
f 60//3 18//3 6//3 56//3
f 57//6 10//6 11//6 58//6
f 58//7 11//7 9//7 59//7
f 60//8 16//8 17//8 61//8
f 61//9 17//9 15//9 62//9
f 55//10 2//10 13//10 59//10
f 12//5 14//5 4//5 3//5
f 18//5 20//5 22//5 23//5
f 37//5 6//5 8//5 33//5
f 6//5 18//5 23//5 8//5
f 41//5 12//5 3//5 31//5
f 13//5 2//5 7//5 21//5
f 14//5 13//5 21//5 4//5
f 44//5 22//5 24//5 32//5
f 33//1 8//1 25//1 45//1
f 21//3 7//3 27//3 28//3
f 8//10 23//10 26//10 25//10
f 43//4 4//4 30//4 47//4
f 23//10 22//10 29//10 26//10
f 22//4 44//4 48//4 29//4
f 44//4 43//4 47//4 48//4
f 7//1 34//1 46//1 27//1
f 34//1 33//1 45//1 46//1
f 4//5 43//5 31//5 3//5
f 43//5 44//5 32//5 31//5
f 19//5 42//5 32//5 24//5
f 42//5 41//5 31//5 32//5
f 2//5 38//5 34//5 7//5
f 38//5 37//5 33//5 34//5
f 56//4 6//4 37//4 63//4
f 51//10 68//10 77//10 78//10
f 9//2 11//2 10//2 40//2 35//2 1//2
f 35//2 40//2 39//2 36//2
f 57//1 12//1 41//1 65//1
f 65//1 41//1 42//1 66//1
f 67//11 53//11 54//11 68//11
f 71//5 70//5 54//5 53//5
f 69//2 72//2 52//2 51//2
f 74//10 69//10 79//10 84//10
f 72//3 73//3 83//3 80//3
f 52//12 67//12 68//12 51//12
f 40//1 65//1 66//1 39//1
f 10//1 57//1 65//1 40//1
f 67//3 52//3 76//3 75//3
f 5//4 56//4 63//4 36//4
f 1//10 55//10 59//10 9//10
f 20//9 61//9 62//9 19//9
f 18//8 60//8 61//8 20//8
f 14//7 58//7 59//7 13//7
f 12//6 57//6 58//6 14//6
f 16//3 60//3 56//3 5//3
f 35//4 64//4 55//4 1//4
f 39//1 66//1 62//1 15//1
f 38//10 64//10 74//10 70//10
f 36//3 63//3 73//3 72//3
f 63//3 37//3 71//3 73//3
f 35//2 36//2 72//2 69//2
f 37//5 38//5 70//5 71//5
f 64//10 35//10 69//10 74//10
f 79//2 78//2 90//2 91//2
f 83//13 86//13 98//13 95//13
f 77//11 82//11 94//11 89//11
f 82//5 85//5 97//5 94//5
f 53//3 67//3 75//3 81//3
f 54//10 70//10 85//10 82//10
f 73//3 71//3 86//3 83//3
f 52//3 72//3 80//3 76//3
f 68//10 54//10 82//10 77//10
f 71//3 53//3 81//3 86//3
f 69//10 51//10 78//10 79//10
f 70//10 74//10 84//10 85//10
f 96//10 91//10 90//10 89//10
f 95//3 98//3 93//3 87//3
f 92//3 95//3 87//3 88//3
f 97//10 96//10 89//10 94//10
f 86//5 81//5 93//5 98//5
f 84//14 79//14 91//14 96//14
f 76//2 80//2 92//2 88//2
f 85//13 84//13 96//13 97//13
f 75//12 76//12 88//12 87//12
f 81//11 75//11 87//11 93//11
f 80//14 83//14 95//14 92//14
f 78//12 77//12 89//12 90//12
f 107//15 105//15 106//15 108//15
f 111//16 110//16 106//16 105//16
f 109//17 112//17 104//17 103//17
f 104//18 107//18 108//18 103//18
f 99//17 100//17 112//17 109//17
f 101//16 102//16 110//16 111//16
f 187//10 188//10 99//10 109//10
f 111//3 112//3 100//3 101//3
f 187//10 189//10 106//10 110//10
f 108//10 106//10 189//10 103//10
f 112//3 111//3 105//3 104//3
f 107//3 104//3 105//3
f 121//15 119//15 120//15 122//15
f 125//16 124//16 120//16 119//16
f 123//17 126//17 118//17 117//17
f 118//18 121//18 122//18 117//18
f 113//17 114//17 126//17 123//17
f 115//16 116//16 124//16 125//16
f 124//10 116//10 113//10 123//10
f 191//3 126//3 114//3 190//3
f 123//10 117//10 120//10 124//10
f 122//10 120//10 117//10
f 191//3 125//3 119//3 192//3
f 121//3 118//3 192//3 119//3
f 186//19 168//19 145//19 184//19
f 183//20 143//20 141//20 184//20
f 182//21 142//21 143//21 183//21
f 180//22 137//22 135//22 181//22
f 179//23 136//23 137//23 180//23
f 182//10 144//10 129//10 178//10
f 146//24 145//24 150//24 148//24
f 131//10 147//10 154//10 156//10
f 162//16 165//16 141//16 143//16 142//16 130//16
f 177//3 133//3 139//3 181//3
f 138//25 140//25 131//25 132//25
f 144//26 146//26 148//26 149//26
f 163//27 129//27 127//27 159//27
f 129//28 144//28 149//28 127//28
f 167//17 138//17 132//17 157//17
f 139//29 133//29 128//29 147//29
f 140//30 139//30 147//30 131//30
f 170//31 148//31 150//31 158//31
f 159//19 127//19 151//19 171//19
f 147//10 128//10 153//10 154//10
f 127//3 149//3 152//3 151//3
f 169//32 131//32 156//32 173//32
f 149//3 148//3 155//3 152//3
f 148//32 170//32 174//32 155//32
f 170//32 169//32 173//32 174//32
f 128//19 160//19 172//19 153//19
f 160//19 159//19 171//19 172//19
f 131//31 169//31 157//31 132//31
f 169//31 170//31 158//31 157//31
f 145//17 168//17 158//17 150//17
f 168//17 167//17 157//17 158//17
f 133//27 164//27 160//27 128//27
f 164//27 163//27 159//27 160//27
f 135//16 137//16 136//16 166//16 161//16 134//16
f 161//16 166//16 165//16 162//16
f 179//19 138//19 167//19 185//19
f 185//19 167//19 168//19 186//19
f 166//19 185//19 186//19 165//19
f 136//19 179//19 185//19 166//19
f 134//3 177//3 181//3 135//3
f 146//20 183//20 184//20 145//20
f 144//21 182//21 183//21 146//21
f 140//22 180//22 181//22 139//22
f 138//23 179//23 180//23 140//23
f 142//10 182//10 178//10 130//10
f 165//19 186//19 184//19 141//19
f 100//17 99//17 129//17 163//17
f 109//10 103//10 189//10 187//10
f 110//10 102//10 188//10 187//10
f 188//33 178//33 129//33 99//33
f 178//33 188//33 102//33 130//33
f 102//16 101//16 162//16 130//16
f 101//34 100//34 163//34 162//34
f 161//32 162//32 163//32 164//32
f 113//35 116//35 161//35 164//35
f 114//17 113//17 164//17 133//17
f 126//3 191//3 192//3 118//3
f 125//3 191//3 190//3 115//3
f 177//36 190//36 114//36 133//36
f 190//36 177//36 134//36 115//36
f 116//16 115//16 134//16 161//16
f 214//21 213//21 221//21 220//21
f 216//37 215//37 219//37 218//37
f 217//38 216//38 218//38 225//38
f 211//22 210//22 224//22 223//22
f 213//20 212//20 222//20 221//20
f 215//39 214//39 220//39 219//39
f 210//40 217//40 225//40 224//40
f 212//23 211//23 223//23 222//23
f 223//17 224//17 226//17
f 221//17 222//17 226//17
f 219//17 220//17 226//17
f 224//17 225//17 226//17
f 222//17 223//17 226//17
f 220//17 221//17 226//17
f 218//17 219//17 226//17
f 225//17 218//17 226//17
f 299//21 298//21 306//21 305//21
f 301//37 300//37 304//37 303//37
f 302//38 301//38 303//38 310//38
f 296//22 295//22 309//22 308//22
f 298//20 297//20 307//20 306//20
f 300//39 299//39 305//39 304//39
f 295//40 302//40 310//40 309//40
f 297//23 296//23 308//23 307//23
f 308//17 309//17 311//17
f 306//17 307//17 311//17
f 304//17 305//17 311//17
f 309//17 310//17 311//17
f 307//17 308//17 311//17
f 305//17 306//17 311//17
f 303//17 304//17 311//17
f 310//17 303//17 311//17
f 316//21 315//21 323//21 322//21
f 318//37 317//37 321//37 320//37
f 319//38 318//38 320//38 327//38
f 313//22 312//22 326//22 325//22
f 315//20 314//20 324//20 323//20
f 317//39 316//39 322//39 321//39
f 312//40 319//40 327//40 326//40
f 314//23 313//23 325//23 324//23
f 325//17 326//17 328//17
f 323//17 324//17 328//17
f 321//17 322//17 328//17
f 326//17 327//17 328//17
f 324//17 325//17 328//17
f 322//17 323//17 328//17
f 320//17 321//17 328//17
f 327//17 320//17 328//17
usemtl 80DEEA
f 50//5 28//5 27//5 46//5
f 49//5 26//5 29//5 48//5
f 28//5 50//5 47//5 30//5
f 50//5 49//5 48//5 47//5
f 26//5 49//5 45//5 25//5
f 49//5 50//5 46//5 45//5
f 176//17 154//17 153//17 172//17
f 175//17 152//17 155//17 174//17
f 154//17 176//17 173//17 156//17
f 176//17 175//17 174//17 173//17
f 152//17 175//17 171//17 151//17
f 175//17 176//17 172//17 171//17
usemtl F44336
f 282//23 281//23 289//23 288//23
f 284//21 283//21 287//21 286//21
f 285//39 284//39 286//39 293//39
f 279//38 278//38 292//38 291//38
f 281//22 280//22 290//22 289//22
f 283//20 282//20 288//20 287//20
f 278//37 285//37 293//37 292//37
f 280//40 279//40 291//40 290//40
f 291//17 292//17 294//17
f 289//17 290//17 294//17
f 287//17 288//17 294//17
f 292//17 293//17 294//17
f 290//17 291//17 294//17
f 288//17 289//17 294//17
f 286//17 287//17 294//17
f 293//17 286//17 294//17
usemtl 8BC34A
f 265//23 264//23 272//23 271//23
f 267//21 266//21 270//21 269//21
f 268//39 267//39 269//39 276//39
f 262//38 261//38 275//38 274//38
f 264//22 263//22 273//22 272//22
f 266//20 265//20 271//20 270//20
f 261//37 268//37 276//37 275//37
f 263//40 262//40 274//40 273//40
f 274//17 275//17 277//17
f 272//17 273//17 277//17
f 270//17 271//17 277//17
f 275//17 276//17 277//17
f 273//17 274//17 277//17
f 271//17 272//17 277//17
f 269//17 270//17 277//17
f 276//17 269//17 277//17
usemtl DD9944
f 248//21 247//21 255//21 254//21
f 250//37 249//37 253//37 252//37
f 251//38 250//38 252//38 259//38
f 245//22 244//22 258//22 257//22
f 247//20 246//20 256//20 255//20
f 249//39 248//39 254//39 253//39
f 244//40 251//40 259//40 258//40
f 246//23 245//23 257//23 256//23
f 257//17 258//17 260//17
f 255//17 256//17 260//17
f 253//17 254//17 260//17
f 258//17 259//17 260//17
f 256//17 257//17 260//17
f 254//17 255//17 260//17
f 252//17 253//17 260//17
f 259//17 252//17 260//17
usemtl 039BE5
f 231//21 230//21 238//21 237//21
f 233//37 232//37 236//37 235//37
f 234//38 233//38 235//38 242//38
f 228//22 227//22 241//22 240//22
f 230//20 229//20 239//20 238//20
f 232//39 231//39 237//39 236//39
f 227//40 234//40 242//40 241//40
f 229//23 228//23 240//23 239//23
f 240//17 241//17 243//17
f 238//17 239//17 243//17
f 236//17 237//17 243//17
f 241//17 242//17 243//17
f 239//17 240//17 243//17
f 237//17 238//17 243//17
f 235//17 236//17 243//17
f 242//17 235//17 243//17
usemtl 78909C
f 195//21 196//21 204//21 203//21
f 193//37 194//37 202//37 201//37
f 200//38 193//38 201//38 208//38
f 198//22 199//22 207//22 206//22
f 196//20 197//20 205//20 204//20
f 194//39 195//39 203//39 202//39
f 199//40 200//40 208//40 207//40
f 197//23 198//23 206//23 205//23
f 206//17 207//17 209//17
f 204//17 205//17 209//17
f 202//17 203//17 209//17
f 207//17 208//17 209//17
f 205//17 206//17 209//17
f 203//17 204//17 209//17
f 201//17 202//17 209//17
f 208//17 201//17 209//17
usemtl 455A64
f 335//32 336//32 349//32 350//32
f 336//3 335//3 341//3 342//3
f 336//17 334//17 352//17 349//17
f 329//16 333//16 344//16 337//16
f 331//16 335//16 333//16 329//16
f 336//17 332//17 330//17 334//17
f 340//32 339//32 342//32 341//32
f 344//19 343//19 338//19 337//19
f 335//16 331//16 340//16 341//16
f 334//17 330//17 338//17 343//17
f 333//3 334//3 343//3 344//3
f 332//17 336//17 342//17 339//17
f 331//10 332//10 339//10 340//10
f 330//10 329//10 337//10 338//10
f 346//10 347//10 348//10 345//10
f 350//3 349//3 352//3 351//3
f 330//17 332//17 348//17 347//17
f 331//16 329//16 346//16 345//16
f 334//19 333//19 351//19 352//19
f 333//16 335//16 350//16 351//16
f 332//32 331//32 345//32 348//32
f 329//19 330//19 347//19 346//19
